<svg id="eK89Mp3vaTw1" xmlns="http://www.w3.org/2000/svg" xmlns:xlink="http://www.w3.org/1999/xlink" viewBox="0 0 536 200" shape-rendering="geometricPrecision" text-rendering="geometricPrecision"><rect width="468.053916" height="200" rx="0" ry="0" transform="matrix(1.068253 0 0 1 36 0)" fill-opacity="0" stroke="#cc922f" stroke-width="3"/><rect width="50" height="50" rx="0" ry="0" transform="matrix(.707107 0.707107-.707107 0.707107 36.005339 64.644661)" fill="#d2dbed" fill-opacity="0" stroke="#cc922f" stroke-width="2"/><g><line x1="-25" y1="0" x2="39" y2="0" transform="matrix(0 1-1 0 46 151)" fill="none" stroke="#cc922f"/><line x1="-25" y1="0" x2="39" y2="0" transform="matrix(0 1-1 0 46 35.000002)" fill="none" stroke="#cc922f"/><line x1="-25" y1="0" x2="155" y2="0" transform="matrix(0 1-1 0 526 35)" fill="none" stroke="#cc922f"/><line x1="-25" y1="0" x2="39.41121" y2="0" transform="matrix(-7.452119 0 0-1 339.697027 190)" fill="none" stroke="#cc922f"/><line x1="-25" y1="0" x2="39.41121" y2="0" transform="matrix(-7.452119 0 0-1 339.697027 10)" fill="none" stroke="#cc922f"/></g></svg>
